G04 #@! TF.GenerationSoftware,KiCad,Pcbnew,5.0.2-bee76a0~70~ubuntu18.04.1*
G04 #@! TF.CreationDate,2019-01-24T05:23:48+01:00*
G04 #@! TF.ProjectId,radiador,72616469-6164-46f7-922e-6b696361645f,rev?*
G04 #@! TF.SameCoordinates,Original*
G04 #@! TF.FileFunction,Legend,Top*
G04 #@! TF.FilePolarity,Positive*
%FSLAX46Y46*%
G04 Gerber Fmt 4.6, Leading zero omitted, Abs format (unit mm)*
G04 Created by KiCad (PCBNEW 5.0.2-bee76a0~70~ubuntu18.04.1) date jue 24 ene 2019 05:23:48 CET*
%MOMM*%
%LPD*%
G01*
G04 APERTURE LIST*
%ADD10C,0.300000*%
%ADD11C,0.150000*%
%ADD12C,0.120000*%
%ADD13C,0.100000*%
G04 APERTURE END LIST*
D10*
X96704628Y-57315571D02*
X96704628Y-55815571D01*
X97204628Y-56887000D01*
X97704628Y-55815571D01*
X97704628Y-57315571D01*
X98276057Y-56315571D02*
X98633200Y-57315571D01*
X98990342Y-56315571D02*
X98633200Y-57315571D01*
X98490342Y-57672714D01*
X98418914Y-57744142D01*
X98276057Y-57815571D01*
X99347485Y-55815571D02*
X100204628Y-55815571D01*
X99776057Y-57315571D02*
X99776057Y-55815571D01*
X100704628Y-57315571D02*
X100704628Y-55815571D01*
X101347485Y-57315571D02*
X101347485Y-56529857D01*
X101276057Y-56387000D01*
X101133200Y-56315571D01*
X100918914Y-56315571D01*
X100776057Y-56387000D01*
X100704628Y-56458428D01*
X102633200Y-57244142D02*
X102490342Y-57315571D01*
X102204628Y-57315571D01*
X102061771Y-57244142D01*
X101990342Y-57101285D01*
X101990342Y-56529857D01*
X102061771Y-56387000D01*
X102204628Y-56315571D01*
X102490342Y-56315571D01*
X102633200Y-56387000D01*
X102704628Y-56529857D01*
X102704628Y-56672714D01*
X101990342Y-56815571D01*
X103347485Y-57315571D02*
X103347485Y-56315571D01*
X103347485Y-56601285D02*
X103418914Y-56458428D01*
X103490342Y-56387000D01*
X103633200Y-56315571D01*
X103776057Y-56315571D01*
X104276057Y-57315571D02*
X104276057Y-56315571D01*
X104276057Y-56458428D02*
X104347485Y-56387000D01*
X104490342Y-56315571D01*
X104704628Y-56315571D01*
X104847485Y-56387000D01*
X104918914Y-56529857D01*
X104918914Y-57315571D01*
X104918914Y-56529857D02*
X104990342Y-56387000D01*
X105133200Y-56315571D01*
X105347485Y-56315571D01*
X105490342Y-56387000D01*
X105561771Y-56529857D01*
X105561771Y-57315571D01*
X106490342Y-57315571D02*
X106347485Y-57244142D01*
X106276057Y-57172714D01*
X106204628Y-57029857D01*
X106204628Y-56601285D01*
X106276057Y-56458428D01*
X106347485Y-56387000D01*
X106490342Y-56315571D01*
X106704628Y-56315571D01*
X106847485Y-56387000D01*
X106918914Y-56458428D01*
X106990342Y-56601285D01*
X106990342Y-57029857D01*
X106918914Y-57172714D01*
X106847485Y-57244142D01*
X106704628Y-57315571D01*
X106490342Y-57315571D01*
X107561771Y-57244142D02*
X107704628Y-57315571D01*
X107990342Y-57315571D01*
X108133200Y-57244142D01*
X108204628Y-57101285D01*
X108204628Y-57029857D01*
X108133200Y-56887000D01*
X107990342Y-56815571D01*
X107776057Y-56815571D01*
X107633200Y-56744142D01*
X107561771Y-56601285D01*
X107561771Y-56529857D01*
X107633200Y-56387000D01*
X107776057Y-56315571D01*
X107990342Y-56315571D01*
X108133200Y-56387000D01*
X108633200Y-56315571D02*
X109204628Y-56315571D01*
X108847485Y-55815571D02*
X108847485Y-57101285D01*
X108918914Y-57244142D01*
X109061771Y-57315571D01*
X109204628Y-57315571D01*
X110347485Y-57315571D02*
X110347485Y-56529857D01*
X110276057Y-56387000D01*
X110133200Y-56315571D01*
X109847485Y-56315571D01*
X109704628Y-56387000D01*
X110347485Y-57244142D02*
X110204628Y-57315571D01*
X109847485Y-57315571D01*
X109704628Y-57244142D01*
X109633200Y-57101285D01*
X109633200Y-56958428D01*
X109704628Y-56815571D01*
X109847485Y-56744142D01*
X110204628Y-56744142D01*
X110347485Y-56672714D01*
X110847485Y-56315571D02*
X111418914Y-56315571D01*
X111061771Y-55815571D02*
X111061771Y-57101285D01*
X111133200Y-57244142D01*
X111276057Y-57315571D01*
X111418914Y-57315571D01*
X112918914Y-56315571D02*
X113276057Y-57315571D01*
X113633200Y-56315571D01*
X114133200Y-55958428D02*
X114204628Y-55887000D01*
X114347485Y-55815571D01*
X114704628Y-55815571D01*
X114847485Y-55887000D01*
X114918914Y-55958428D01*
X114990342Y-56101285D01*
X114990342Y-56244142D01*
X114918914Y-56458428D01*
X114061771Y-57315571D01*
X114990342Y-57315571D01*
X115633200Y-57172714D02*
X115704628Y-57244142D01*
X115633200Y-57315571D01*
X115561771Y-57244142D01*
X115633200Y-57172714D01*
X115633200Y-57315571D01*
X116633200Y-55815571D02*
X116776057Y-55815571D01*
X116918914Y-55887000D01*
X116990342Y-55958428D01*
X117061771Y-56101285D01*
X117133200Y-56387000D01*
X117133200Y-56744142D01*
X117061771Y-57029857D01*
X116990342Y-57172714D01*
X116918914Y-57244142D01*
X116776057Y-57315571D01*
X116633200Y-57315571D01*
X116490342Y-57244142D01*
X116418914Y-57172714D01*
X116347485Y-57029857D01*
X116276057Y-56744142D01*
X116276057Y-56387000D01*
X116347485Y-56101285D01*
X116418914Y-55958428D01*
X116490342Y-55887000D01*
X116633200Y-55815571D01*
X101311771Y-59865571D02*
X101311771Y-58365571D01*
X101311771Y-58937000D02*
X101454628Y-58865571D01*
X101740342Y-58865571D01*
X101883200Y-58937000D01*
X101954628Y-59008428D01*
X102026057Y-59151285D01*
X102026057Y-59579857D01*
X101954628Y-59722714D01*
X101883200Y-59794142D01*
X101740342Y-59865571D01*
X101454628Y-59865571D01*
X101311771Y-59794142D01*
X102526057Y-58865571D02*
X102883200Y-59865571D01*
X103240342Y-58865571D02*
X102883200Y-59865571D01*
X102740342Y-60222714D01*
X102668914Y-60294142D01*
X102526057Y-60365571D01*
X105740342Y-58437000D02*
X105597485Y-58365571D01*
X105383200Y-58365571D01*
X105168914Y-58437000D01*
X105026057Y-58579857D01*
X104954628Y-58722714D01*
X104883200Y-59008428D01*
X104883200Y-59222714D01*
X104954628Y-59508428D01*
X105026057Y-59651285D01*
X105168914Y-59794142D01*
X105383200Y-59865571D01*
X105526057Y-59865571D01*
X105740342Y-59794142D01*
X105811771Y-59722714D01*
X105811771Y-59222714D01*
X105526057Y-59222714D01*
X107026057Y-59794142D02*
X106883200Y-59865571D01*
X106597485Y-59865571D01*
X106454628Y-59794142D01*
X106383200Y-59651285D01*
X106383200Y-59079857D01*
X106454628Y-58937000D01*
X106597485Y-58865571D01*
X106883200Y-58865571D01*
X107026057Y-58937000D01*
X107097485Y-59079857D01*
X107097485Y-59222714D01*
X106383200Y-59365571D01*
X107740342Y-59865571D02*
X107740342Y-58865571D01*
X107740342Y-59151285D02*
X107811771Y-59008428D01*
X107883200Y-58937000D01*
X108026057Y-58865571D01*
X108168914Y-58865571D01*
X109311771Y-59865571D02*
X109311771Y-59079857D01*
X109240342Y-58937000D01*
X109097485Y-58865571D01*
X108811771Y-58865571D01*
X108668914Y-58937000D01*
X109311771Y-59794142D02*
X109168914Y-59865571D01*
X108811771Y-59865571D01*
X108668914Y-59794142D01*
X108597485Y-59651285D01*
X108597485Y-59508428D01*
X108668914Y-59365571D01*
X108811771Y-59294142D01*
X109168914Y-59294142D01*
X109311771Y-59222714D01*
X109811771Y-58865571D02*
X110383200Y-58865571D01*
X110026057Y-58365571D02*
X110026057Y-59651285D01*
X110097485Y-59794142D01*
X110240342Y-59865571D01*
X110383200Y-59865571D01*
X111097485Y-59865571D02*
X110954628Y-59794142D01*
X110883200Y-59722714D01*
X110811771Y-59579857D01*
X110811771Y-59151285D01*
X110883200Y-59008428D01*
X110954628Y-58937000D01*
X111097485Y-58865571D01*
X111311771Y-58865571D01*
X111454628Y-58937000D01*
X111526057Y-59008428D01*
X111597485Y-59151285D01*
X111597485Y-59579857D01*
X111526057Y-59722714D01*
X111454628Y-59794142D01*
X111311771Y-59865571D01*
X111097485Y-59865571D01*
X112240342Y-59865571D02*
X112240342Y-58865571D01*
X112240342Y-59151285D02*
X112311771Y-59008428D01*
X112383200Y-58937000D01*
X112526057Y-58865571D01*
X112668914Y-58865571D01*
D11*
G04 #@! TO.C,U1*
X160703000Y-21924000D02*
X200703000Y-21924000D01*
X200703000Y-59924000D02*
X160703000Y-59924000D01*
X200703000Y-21924000D02*
X200703000Y-59924000D01*
X160703000Y-59924000D02*
X160703000Y-21924000D01*
D12*
G04 #@! TO.C,TR1*
X71816500Y-51736500D02*
X74816500Y-51736500D01*
X61816500Y-51736500D02*
X69816500Y-51736500D01*
X57316500Y-51736500D02*
X59816500Y-51736500D01*
X54816500Y-29736500D02*
X54316500Y-29736500D01*
X54316500Y-29736500D02*
X54316500Y-51736500D01*
X59816500Y-29736500D02*
X56816500Y-29736500D01*
X64816500Y-29736500D02*
X61816500Y-29736500D01*
X69816500Y-29736500D02*
X66816500Y-29736500D01*
X74816500Y-29736500D02*
X71816500Y-29736500D01*
X76816500Y-51736500D02*
X77316500Y-51736500D01*
X77316500Y-51736500D02*
X77316500Y-29736500D01*
X77316500Y-29736500D02*
X76816500Y-29736500D01*
X49396500Y-26616500D02*
X82236500Y-26616500D01*
X49396500Y-26616500D02*
X49396500Y-54856500D01*
X82236500Y-54856500D02*
X82236500Y-26616500D01*
X82236500Y-54856500D02*
X49396500Y-54856500D01*
G04 #@! TO.C,C13*
X124284331Y-35959638D02*
X124284331Y-35442482D01*
X125704331Y-35959638D02*
X125704331Y-35442482D01*
G04 #@! TO.C,J2*
X33548500Y-39493500D02*
X33548500Y-29213500D01*
X33548500Y-29213500D02*
X30888500Y-29213500D01*
X30888500Y-29213500D02*
X30888500Y-39493500D01*
X30888500Y-39493500D02*
X33548500Y-39493500D01*
X30888500Y-38543500D02*
X24888500Y-38543500D01*
X24888500Y-38543500D02*
X24888500Y-37783500D01*
X24888500Y-37783500D02*
X30888500Y-37783500D01*
X30888500Y-38483500D02*
X24888500Y-38483500D01*
X30888500Y-38363500D02*
X24888500Y-38363500D01*
X30888500Y-38243500D02*
X24888500Y-38243500D01*
X30888500Y-38123500D02*
X24888500Y-38123500D01*
X30888500Y-38003500D02*
X24888500Y-38003500D01*
X30888500Y-37883500D02*
X24888500Y-37883500D01*
X33878500Y-38543500D02*
X33548500Y-38543500D01*
X33878500Y-37783500D02*
X33548500Y-37783500D01*
X33548500Y-36893500D02*
X30888500Y-36893500D01*
X30888500Y-36003500D02*
X24888500Y-36003500D01*
X24888500Y-36003500D02*
X24888500Y-35243500D01*
X24888500Y-35243500D02*
X30888500Y-35243500D01*
X33945571Y-36003500D02*
X33548500Y-36003500D01*
X33945571Y-35243500D02*
X33548500Y-35243500D01*
X33548500Y-34353500D02*
X30888500Y-34353500D01*
X30888500Y-33463500D02*
X24888500Y-33463500D01*
X24888500Y-33463500D02*
X24888500Y-32703500D01*
X24888500Y-32703500D02*
X30888500Y-32703500D01*
X33945571Y-33463500D02*
X33548500Y-33463500D01*
X33945571Y-32703500D02*
X33548500Y-32703500D01*
X33548500Y-31813500D02*
X30888500Y-31813500D01*
X30888500Y-30923500D02*
X24888500Y-30923500D01*
X24888500Y-30923500D02*
X24888500Y-30163500D01*
X24888500Y-30163500D02*
X30888500Y-30163500D01*
X33945571Y-30923500D02*
X33548500Y-30923500D01*
X33945571Y-30163500D02*
X33548500Y-30163500D01*
X36258500Y-38163500D02*
X36258500Y-39433500D01*
X36258500Y-39433500D02*
X34988500Y-39433500D01*
G04 #@! TO.C,C2*
X93958400Y-39674800D02*
G75*
G03X93958400Y-39674800I-5120000J0D01*
G01*
X88838400Y-44754800D02*
X88838400Y-34594800D01*
X88798400Y-44754800D02*
X88798400Y-34594800D01*
X88758400Y-44754800D02*
X88758400Y-34594800D01*
X88718400Y-44753800D02*
X88718400Y-34595800D01*
X88678400Y-44752800D02*
X88678400Y-34596800D01*
X88638400Y-44751800D02*
X88638400Y-34597800D01*
X88598400Y-44749800D02*
X88598400Y-34599800D01*
X88558400Y-44747800D02*
X88558400Y-34601800D01*
X88518400Y-44744800D02*
X88518400Y-34604800D01*
X88478400Y-44742800D02*
X88478400Y-34606800D01*
X88438400Y-44739800D02*
X88438400Y-34609800D01*
X88398400Y-44736800D02*
X88398400Y-34612800D01*
X88358400Y-44732800D02*
X88358400Y-34616800D01*
X88318400Y-44728800D02*
X88318400Y-34620800D01*
X88278400Y-44724800D02*
X88278400Y-34624800D01*
X88238400Y-44719800D02*
X88238400Y-34629800D01*
X88198400Y-44714800D02*
X88198400Y-34634800D01*
X88158400Y-44709800D02*
X88158400Y-34639800D01*
X88117400Y-44704800D02*
X88117400Y-34644800D01*
X88077400Y-44698800D02*
X88077400Y-34650800D01*
X88037400Y-44692800D02*
X88037400Y-34656800D01*
X87997400Y-44685800D02*
X87997400Y-34663800D01*
X87957400Y-44678800D02*
X87957400Y-34670800D01*
X87917400Y-44671800D02*
X87917400Y-34677800D01*
X87877400Y-44664800D02*
X87877400Y-34684800D01*
X87837400Y-44656800D02*
X87837400Y-34692800D01*
X87797400Y-44648800D02*
X87797400Y-34700800D01*
X87757400Y-44639800D02*
X87757400Y-34709800D01*
X87717400Y-44630800D02*
X87717400Y-34718800D01*
X87677400Y-44621800D02*
X87677400Y-34727800D01*
X87637400Y-44612800D02*
X87637400Y-34736800D01*
X87597400Y-44602800D02*
X87597400Y-34746800D01*
X87557400Y-44592800D02*
X87557400Y-40915800D01*
X87557400Y-38433800D02*
X87557400Y-34756800D01*
X87517400Y-44581800D02*
X87517400Y-40915800D01*
X87517400Y-38433800D02*
X87517400Y-34767800D01*
X87477400Y-44571800D02*
X87477400Y-40915800D01*
X87477400Y-38433800D02*
X87477400Y-34777800D01*
X87437400Y-44559800D02*
X87437400Y-40915800D01*
X87437400Y-38433800D02*
X87437400Y-34789800D01*
X87397400Y-44548800D02*
X87397400Y-40915800D01*
X87397400Y-38433800D02*
X87397400Y-34800800D01*
X87357400Y-44536800D02*
X87357400Y-40915800D01*
X87357400Y-38433800D02*
X87357400Y-34812800D01*
X87317400Y-44524800D02*
X87317400Y-40915800D01*
X87317400Y-38433800D02*
X87317400Y-34824800D01*
X87277400Y-44511800D02*
X87277400Y-40915800D01*
X87277400Y-38433800D02*
X87277400Y-34837800D01*
X87237400Y-44498800D02*
X87237400Y-40915800D01*
X87237400Y-38433800D02*
X87237400Y-34850800D01*
X87197400Y-44485800D02*
X87197400Y-40915800D01*
X87197400Y-38433800D02*
X87197400Y-34863800D01*
X87157400Y-44471800D02*
X87157400Y-40915800D01*
X87157400Y-38433800D02*
X87157400Y-34877800D01*
X87117400Y-44457800D02*
X87117400Y-40915800D01*
X87117400Y-38433800D02*
X87117400Y-34891800D01*
X87077400Y-44442800D02*
X87077400Y-40915800D01*
X87077400Y-38433800D02*
X87077400Y-34906800D01*
X87037400Y-44428800D02*
X87037400Y-40915800D01*
X87037400Y-38433800D02*
X87037400Y-34920800D01*
X86997400Y-44412800D02*
X86997400Y-40915800D01*
X86997400Y-38433800D02*
X86997400Y-34936800D01*
X86957400Y-44397800D02*
X86957400Y-40915800D01*
X86957400Y-38433800D02*
X86957400Y-34951800D01*
X86917400Y-44381800D02*
X86917400Y-40915800D01*
X86917400Y-38433800D02*
X86917400Y-34967800D01*
X86877400Y-44364800D02*
X86877400Y-40915800D01*
X86877400Y-38433800D02*
X86877400Y-34984800D01*
X86837400Y-44348800D02*
X86837400Y-40915800D01*
X86837400Y-38433800D02*
X86837400Y-35000800D01*
X86797400Y-44331800D02*
X86797400Y-40915800D01*
X86797400Y-38433800D02*
X86797400Y-35017800D01*
X86757400Y-44313800D02*
X86757400Y-40915800D01*
X86757400Y-38433800D02*
X86757400Y-35035800D01*
X86717400Y-44295800D02*
X86717400Y-40915800D01*
X86717400Y-38433800D02*
X86717400Y-35053800D01*
X86677400Y-44277800D02*
X86677400Y-40915800D01*
X86677400Y-38433800D02*
X86677400Y-35071800D01*
X86637400Y-44258800D02*
X86637400Y-40915800D01*
X86637400Y-38433800D02*
X86637400Y-35090800D01*
X86597400Y-44238800D02*
X86597400Y-40915800D01*
X86597400Y-38433800D02*
X86597400Y-35110800D01*
X86557400Y-44219800D02*
X86557400Y-40915800D01*
X86557400Y-38433800D02*
X86557400Y-35129800D01*
X86517400Y-44199800D02*
X86517400Y-40915800D01*
X86517400Y-38433800D02*
X86517400Y-35149800D01*
X86477400Y-44178800D02*
X86477400Y-40915800D01*
X86477400Y-38433800D02*
X86477400Y-35170800D01*
X86437400Y-44157800D02*
X86437400Y-40915800D01*
X86437400Y-38433800D02*
X86437400Y-35191800D01*
X86397400Y-44136800D02*
X86397400Y-40915800D01*
X86397400Y-38433800D02*
X86397400Y-35212800D01*
X86357400Y-44114800D02*
X86357400Y-40915800D01*
X86357400Y-38433800D02*
X86357400Y-35234800D01*
X86317400Y-44091800D02*
X86317400Y-40915800D01*
X86317400Y-38433800D02*
X86317400Y-35257800D01*
X86277400Y-44069800D02*
X86277400Y-40915800D01*
X86277400Y-38433800D02*
X86277400Y-35279800D01*
X86237400Y-44045800D02*
X86237400Y-40915800D01*
X86237400Y-38433800D02*
X86237400Y-35303800D01*
X86197400Y-44021800D02*
X86197400Y-40915800D01*
X86197400Y-38433800D02*
X86197400Y-35327800D01*
X86157400Y-43997800D02*
X86157400Y-40915800D01*
X86157400Y-38433800D02*
X86157400Y-35351800D01*
X86117400Y-43972800D02*
X86117400Y-40915800D01*
X86117400Y-38433800D02*
X86117400Y-35376800D01*
X86077400Y-43947800D02*
X86077400Y-40915800D01*
X86077400Y-38433800D02*
X86077400Y-35401800D01*
X86037400Y-43921800D02*
X86037400Y-40915800D01*
X86037400Y-38433800D02*
X86037400Y-35427800D01*
X85997400Y-43895800D02*
X85997400Y-40915800D01*
X85997400Y-38433800D02*
X85997400Y-35453800D01*
X85957400Y-43868800D02*
X85957400Y-40915800D01*
X85957400Y-38433800D02*
X85957400Y-35480800D01*
X85917400Y-43840800D02*
X85917400Y-40915800D01*
X85917400Y-38433800D02*
X85917400Y-35508800D01*
X85877400Y-43812800D02*
X85877400Y-40915800D01*
X85877400Y-38433800D02*
X85877400Y-35536800D01*
X85837400Y-43784800D02*
X85837400Y-40915800D01*
X85837400Y-38433800D02*
X85837400Y-35564800D01*
X85797400Y-43754800D02*
X85797400Y-40915800D01*
X85797400Y-38433800D02*
X85797400Y-35594800D01*
X85757400Y-43724800D02*
X85757400Y-40915800D01*
X85757400Y-38433800D02*
X85757400Y-35624800D01*
X85717400Y-43694800D02*
X85717400Y-40915800D01*
X85717400Y-38433800D02*
X85717400Y-35654800D01*
X85677400Y-43663800D02*
X85677400Y-40915800D01*
X85677400Y-38433800D02*
X85677400Y-35685800D01*
X85637400Y-43631800D02*
X85637400Y-40915800D01*
X85637400Y-38433800D02*
X85637400Y-35717800D01*
X85597400Y-43599800D02*
X85597400Y-40915800D01*
X85597400Y-38433800D02*
X85597400Y-35749800D01*
X85557400Y-43566800D02*
X85557400Y-40915800D01*
X85557400Y-38433800D02*
X85557400Y-35782800D01*
X85517400Y-43532800D02*
X85517400Y-40915800D01*
X85517400Y-38433800D02*
X85517400Y-35816800D01*
X85477400Y-43498800D02*
X85477400Y-40915800D01*
X85477400Y-38433800D02*
X85477400Y-35850800D01*
X85437400Y-43463800D02*
X85437400Y-40915800D01*
X85437400Y-38433800D02*
X85437400Y-35885800D01*
X85397400Y-43427800D02*
X85397400Y-40915800D01*
X85397400Y-38433800D02*
X85397400Y-35921800D01*
X85357400Y-43390800D02*
X85357400Y-40915800D01*
X85357400Y-38433800D02*
X85357400Y-35958800D01*
X85317400Y-43353800D02*
X85317400Y-40915800D01*
X85317400Y-38433800D02*
X85317400Y-35995800D01*
X85277400Y-43314800D02*
X85277400Y-40915800D01*
X85277400Y-38433800D02*
X85277400Y-36034800D01*
X85237400Y-43275800D02*
X85237400Y-40915800D01*
X85237400Y-38433800D02*
X85237400Y-36073800D01*
X85197400Y-43235800D02*
X85197400Y-40915800D01*
X85197400Y-38433800D02*
X85197400Y-36113800D01*
X85157400Y-43194800D02*
X85157400Y-40915800D01*
X85157400Y-38433800D02*
X85157400Y-36154800D01*
X85117400Y-43152800D02*
X85117400Y-40915800D01*
X85117400Y-38433800D02*
X85117400Y-36196800D01*
X85077400Y-43110800D02*
X85077400Y-36238800D01*
X85037400Y-43066800D02*
X85037400Y-36282800D01*
X84997400Y-43021800D02*
X84997400Y-36327800D01*
X84957400Y-42975800D02*
X84957400Y-36373800D01*
X84917400Y-42928800D02*
X84917400Y-36420800D01*
X84877400Y-42880800D02*
X84877400Y-36468800D01*
X84837400Y-42830800D02*
X84837400Y-36518800D01*
X84797400Y-42780800D02*
X84797400Y-36568800D01*
X84757400Y-42728800D02*
X84757400Y-36620800D01*
X84717400Y-42674800D02*
X84717400Y-36674800D01*
X84677400Y-42619800D02*
X84677400Y-36729800D01*
X84637400Y-42563800D02*
X84637400Y-36785800D01*
X84597400Y-42504800D02*
X84597400Y-36844800D01*
X84557400Y-42444800D02*
X84557400Y-36904800D01*
X84517400Y-42383800D02*
X84517400Y-36965800D01*
X84477400Y-42319800D02*
X84477400Y-37029800D01*
X84437400Y-42253800D02*
X84437400Y-37095800D01*
X84397400Y-42184800D02*
X84397400Y-37164800D01*
X84357400Y-42113800D02*
X84357400Y-37235800D01*
X84317400Y-42039800D02*
X84317400Y-37309800D01*
X84277400Y-41963800D02*
X84277400Y-37385800D01*
X84237400Y-41883800D02*
X84237400Y-37465800D01*
X84197400Y-41799800D02*
X84197400Y-37549800D01*
X84157400Y-41711800D02*
X84157400Y-37637800D01*
X84117400Y-41618800D02*
X84117400Y-37730800D01*
X84077400Y-41520800D02*
X84077400Y-37828800D01*
X84037400Y-41416800D02*
X84037400Y-37932800D01*
X83997400Y-41304800D02*
X83997400Y-38044800D01*
X83957400Y-41184800D02*
X83957400Y-38164800D01*
X83917400Y-41052800D02*
X83917400Y-38296800D01*
X83877400Y-40904800D02*
X83877400Y-38444800D01*
X83837400Y-40736800D02*
X83837400Y-38612800D01*
X83797400Y-40536800D02*
X83797400Y-38812800D01*
X83757400Y-40273800D02*
X83757400Y-39075800D01*
X94318046Y-42549800D02*
X93318046Y-42549800D01*
X93818046Y-43049800D02*
X93818046Y-42049800D01*
G04 #@! TO.C,C4*
X107429392Y-23483223D02*
X107429392Y-22279095D01*
X109249392Y-23483223D02*
X109249392Y-22279095D01*
G04 #@! TO.C,R7*
X98429578Y-45502900D02*
X97912422Y-45502900D01*
X98429578Y-44082900D02*
X97912422Y-44082900D01*
G04 #@! TO.C,C3*
X134368557Y-32130785D02*
X134368557Y-30926657D01*
X132548557Y-32130785D02*
X132548557Y-30926657D01*
G04 #@! TO.C,HS1*
X84242392Y-24119659D02*
X86202392Y-26009659D01*
X84332392Y-23969659D02*
X84242392Y-24119659D01*
X86382392Y-24649659D02*
X84332392Y-23969659D01*
X84232392Y-20879659D02*
X86382392Y-24649659D01*
X84352392Y-20759659D02*
X84232392Y-20879659D01*
X89652392Y-23639659D02*
X84352392Y-20759659D01*
X88992392Y-20839659D02*
X89652392Y-23639659D01*
X89172392Y-20779659D02*
X88992392Y-20839659D01*
X91672392Y-24499659D02*
X89172392Y-20779659D01*
X93292392Y-20789659D02*
X91682392Y-24499659D01*
X93962392Y-20789659D02*
X93292392Y-20789659D01*
X93962392Y-26539659D02*
X93962392Y-20789659D01*
X101862392Y-26539659D02*
X93962392Y-26539659D01*
X93962392Y-33989659D02*
X93292392Y-33989659D01*
X93962392Y-28239659D02*
X93962392Y-33989659D01*
X101862392Y-28239659D02*
X93962392Y-28239659D01*
X93292392Y-33989659D02*
X91682392Y-30279659D01*
X84332392Y-30809659D02*
X84242392Y-30659659D01*
X84352392Y-34019659D02*
X84232392Y-33899659D01*
X84232392Y-33899659D02*
X86382392Y-30129659D01*
X86382392Y-30129659D02*
X84332392Y-30809659D01*
X84242392Y-30659659D02*
X86202392Y-28769659D01*
X89652392Y-31139659D02*
X84352392Y-34019659D01*
X91672392Y-30279659D02*
X89172392Y-33999659D01*
X89172392Y-33999659D02*
X88992392Y-33939659D01*
X88992392Y-33939659D02*
X89652392Y-31139659D01*
X101862392Y-26539659D02*
X109762392Y-26539659D01*
X110432392Y-20789659D02*
X112042392Y-24499659D01*
X109762392Y-20789659D02*
X110432392Y-20789659D01*
X109762392Y-26539659D02*
X109762392Y-20789659D01*
X101862392Y-28239659D02*
X109762392Y-28239659D01*
X117342392Y-30129659D02*
X119392392Y-30809659D01*
X119372392Y-34019659D02*
X119492392Y-33899659D01*
X119392392Y-30809659D02*
X119482392Y-30659659D01*
X119492392Y-33899659D02*
X117342392Y-30129659D01*
X119482392Y-30659659D02*
X117522392Y-28769659D01*
X112052392Y-30279659D02*
X114552392Y-33999659D01*
X114732392Y-33939659D02*
X114072392Y-31139659D01*
X114552392Y-33999659D02*
X114732392Y-33939659D01*
X114072392Y-31139659D02*
X119372392Y-34019659D01*
X109762392Y-33989659D02*
X110432392Y-33989659D01*
X109762392Y-28239659D02*
X109762392Y-33989659D01*
X110432392Y-33989659D02*
X112042392Y-30279659D01*
X119372392Y-20759659D02*
X119492392Y-20879659D01*
X119482392Y-24119659D02*
X117522392Y-26009659D01*
X117342392Y-24649659D02*
X119392392Y-23969659D01*
X119392392Y-23969659D02*
X119482392Y-24119659D01*
X119492392Y-20879659D02*
X117342392Y-24649659D01*
X114072392Y-23639659D02*
X119372392Y-20759659D01*
X114732392Y-20839659D02*
X114072392Y-23639659D01*
X114552392Y-20779659D02*
X114732392Y-20839659D01*
X112052392Y-24499659D02*
X114552392Y-20779659D01*
G04 #@! TO.C,U6*
X122405341Y-26393200D02*
X122405341Y-27323200D01*
X122405341Y-29553200D02*
X122405341Y-28623200D01*
X122405341Y-29553200D02*
X124565341Y-29553200D01*
X122405341Y-26393200D02*
X123865341Y-26393200D01*
G04 #@! TO.C,R3*
X135455919Y-45290053D02*
X134938763Y-45290053D01*
X135455919Y-46710053D02*
X134938763Y-46710053D01*
D11*
G04 #@! TO.C,U7*
X118892831Y-46247560D02*
X119117831Y-46247560D01*
X118892831Y-38997560D02*
X119217831Y-38997560D01*
X126142831Y-38997560D02*
X125817831Y-38997560D01*
X126142831Y-46247560D02*
X125817831Y-46247560D01*
X118892831Y-46247560D02*
X118892831Y-45922560D01*
X126142831Y-46247560D02*
X126142831Y-45922560D01*
X126142831Y-38997560D02*
X126142831Y-39322560D01*
X118892831Y-38997560D02*
X118892831Y-39322560D01*
X119117831Y-46247560D02*
X119117831Y-47672560D01*
G04 #@! TO.C,U5*
X134963841Y-47044553D02*
X134963841Y-47094553D01*
X139113841Y-47044553D02*
X139113841Y-47189553D01*
X139113841Y-52194553D02*
X139113841Y-52049553D01*
X134963841Y-52194553D02*
X134963841Y-52049553D01*
X134963841Y-47044553D02*
X139113841Y-47044553D01*
X134963841Y-52194553D02*
X139113841Y-52194553D01*
X134963841Y-47094553D02*
X133563841Y-47094553D01*
D12*
G04 #@! TO.C,R6*
X154996557Y-25564299D02*
X154996557Y-25047143D01*
X153576557Y-25564299D02*
X153576557Y-25047143D01*
G04 #@! TO.C,U4*
X106982392Y-26532159D02*
X96742392Y-26532159D01*
X106982392Y-21891159D02*
X96742392Y-21891159D01*
X106982392Y-26532159D02*
X106982392Y-21891159D01*
X96742392Y-26532159D02*
X96742392Y-21891159D01*
X106982392Y-25022159D02*
X96742392Y-25022159D01*
X103712392Y-26532159D02*
X103712392Y-25022159D01*
X100011392Y-26532159D02*
X100011392Y-25022159D01*
D11*
G04 #@! TO.C,U2*
X98033380Y-45710300D02*
X96633380Y-45710300D01*
X98033380Y-50810300D02*
X102183380Y-50810300D01*
X98033380Y-45660300D02*
X102183380Y-45660300D01*
X98033380Y-50810300D02*
X98033380Y-50665300D01*
X102183380Y-50810300D02*
X102183380Y-50665300D01*
X102183380Y-45660300D02*
X102183380Y-45805300D01*
X98033380Y-45660300D02*
X98033380Y-45710300D01*
D12*
G04 #@! TO.C,Y1*
X123956331Y-50934560D02*
X123956331Y-48934560D01*
X127556331Y-48934560D02*
X127556331Y-50934560D01*
X126506331Y-48534560D02*
X126506331Y-48134560D01*
X127756331Y-50934560D02*
X127756331Y-48934560D01*
X123956331Y-48934560D02*
X123956331Y-48534560D01*
X127556331Y-48934560D02*
X127556331Y-48534560D01*
X127756331Y-48934560D02*
X127756331Y-48534560D01*
X127556331Y-50934560D02*
X127406331Y-50934560D01*
X127556331Y-48534560D02*
X127406331Y-48534560D01*
X126506331Y-48534560D02*
X126556331Y-48534560D01*
X123956331Y-48534560D02*
X124106331Y-48534560D01*
X123956331Y-50934560D02*
X124106331Y-50934560D01*
G04 #@! TO.C,J8*
X151799600Y-50402800D02*
X151799600Y-45202800D01*
X146659600Y-50402800D02*
X151799600Y-50402800D01*
X144059600Y-45202800D02*
X151799600Y-45202800D01*
X146659600Y-50402800D02*
X146659600Y-47802800D01*
X146659600Y-47802800D02*
X144059600Y-47802800D01*
X144059600Y-47802800D02*
X144059600Y-45202800D01*
X145389600Y-50402800D02*
X144059600Y-50402800D01*
X144059600Y-50402800D02*
X144059600Y-49072800D01*
G04 #@! TO.C,C12*
X94009200Y-50647600D02*
G75*
G03X94009200Y-50647600I-5120000J0D01*
G01*
X88889200Y-55727600D02*
X88889200Y-45567600D01*
X88849200Y-55727600D02*
X88849200Y-45567600D01*
X88809200Y-55727600D02*
X88809200Y-45567600D01*
X88769200Y-55726600D02*
X88769200Y-45568600D01*
X88729200Y-55725600D02*
X88729200Y-45569600D01*
X88689200Y-55724600D02*
X88689200Y-45570600D01*
X88649200Y-55722600D02*
X88649200Y-45572600D01*
X88609200Y-55720600D02*
X88609200Y-45574600D01*
X88569200Y-55717600D02*
X88569200Y-45577600D01*
X88529200Y-55715600D02*
X88529200Y-45579600D01*
X88489200Y-55712600D02*
X88489200Y-45582600D01*
X88449200Y-55709600D02*
X88449200Y-45585600D01*
X88409200Y-55705600D02*
X88409200Y-45589600D01*
X88369200Y-55701600D02*
X88369200Y-45593600D01*
X88329200Y-55697600D02*
X88329200Y-45597600D01*
X88289200Y-55692600D02*
X88289200Y-45602600D01*
X88249200Y-55687600D02*
X88249200Y-45607600D01*
X88209200Y-55682600D02*
X88209200Y-45612600D01*
X88168200Y-55677600D02*
X88168200Y-45617600D01*
X88128200Y-55671600D02*
X88128200Y-45623600D01*
X88088200Y-55665600D02*
X88088200Y-45629600D01*
X88048200Y-55658600D02*
X88048200Y-45636600D01*
X88008200Y-55651600D02*
X88008200Y-45643600D01*
X87968200Y-55644600D02*
X87968200Y-45650600D01*
X87928200Y-55637600D02*
X87928200Y-45657600D01*
X87888200Y-55629600D02*
X87888200Y-45665600D01*
X87848200Y-55621600D02*
X87848200Y-45673600D01*
X87808200Y-55612600D02*
X87808200Y-45682600D01*
X87768200Y-55603600D02*
X87768200Y-45691600D01*
X87728200Y-55594600D02*
X87728200Y-45700600D01*
X87688200Y-55585600D02*
X87688200Y-45709600D01*
X87648200Y-55575600D02*
X87648200Y-45719600D01*
X87608200Y-55565600D02*
X87608200Y-51888600D01*
X87608200Y-49406600D02*
X87608200Y-45729600D01*
X87568200Y-55554600D02*
X87568200Y-51888600D01*
X87568200Y-49406600D02*
X87568200Y-45740600D01*
X87528200Y-55544600D02*
X87528200Y-51888600D01*
X87528200Y-49406600D02*
X87528200Y-45750600D01*
X87488200Y-55532600D02*
X87488200Y-51888600D01*
X87488200Y-49406600D02*
X87488200Y-45762600D01*
X87448200Y-55521600D02*
X87448200Y-51888600D01*
X87448200Y-49406600D02*
X87448200Y-45773600D01*
X87408200Y-55509600D02*
X87408200Y-51888600D01*
X87408200Y-49406600D02*
X87408200Y-45785600D01*
X87368200Y-55497600D02*
X87368200Y-51888600D01*
X87368200Y-49406600D02*
X87368200Y-45797600D01*
X87328200Y-55484600D02*
X87328200Y-51888600D01*
X87328200Y-49406600D02*
X87328200Y-45810600D01*
X87288200Y-55471600D02*
X87288200Y-51888600D01*
X87288200Y-49406600D02*
X87288200Y-45823600D01*
X87248200Y-55458600D02*
X87248200Y-51888600D01*
X87248200Y-49406600D02*
X87248200Y-45836600D01*
X87208200Y-55444600D02*
X87208200Y-51888600D01*
X87208200Y-49406600D02*
X87208200Y-45850600D01*
X87168200Y-55430600D02*
X87168200Y-51888600D01*
X87168200Y-49406600D02*
X87168200Y-45864600D01*
X87128200Y-55415600D02*
X87128200Y-51888600D01*
X87128200Y-49406600D02*
X87128200Y-45879600D01*
X87088200Y-55401600D02*
X87088200Y-51888600D01*
X87088200Y-49406600D02*
X87088200Y-45893600D01*
X87048200Y-55385600D02*
X87048200Y-51888600D01*
X87048200Y-49406600D02*
X87048200Y-45909600D01*
X87008200Y-55370600D02*
X87008200Y-51888600D01*
X87008200Y-49406600D02*
X87008200Y-45924600D01*
X86968200Y-55354600D02*
X86968200Y-51888600D01*
X86968200Y-49406600D02*
X86968200Y-45940600D01*
X86928200Y-55337600D02*
X86928200Y-51888600D01*
X86928200Y-49406600D02*
X86928200Y-45957600D01*
X86888200Y-55321600D02*
X86888200Y-51888600D01*
X86888200Y-49406600D02*
X86888200Y-45973600D01*
X86848200Y-55304600D02*
X86848200Y-51888600D01*
X86848200Y-49406600D02*
X86848200Y-45990600D01*
X86808200Y-55286600D02*
X86808200Y-51888600D01*
X86808200Y-49406600D02*
X86808200Y-46008600D01*
X86768200Y-55268600D02*
X86768200Y-51888600D01*
X86768200Y-49406600D02*
X86768200Y-46026600D01*
X86728200Y-55250600D02*
X86728200Y-51888600D01*
X86728200Y-49406600D02*
X86728200Y-46044600D01*
X86688200Y-55231600D02*
X86688200Y-51888600D01*
X86688200Y-49406600D02*
X86688200Y-46063600D01*
X86648200Y-55211600D02*
X86648200Y-51888600D01*
X86648200Y-49406600D02*
X86648200Y-46083600D01*
X86608200Y-55192600D02*
X86608200Y-51888600D01*
X86608200Y-49406600D02*
X86608200Y-46102600D01*
X86568200Y-55172600D02*
X86568200Y-51888600D01*
X86568200Y-49406600D02*
X86568200Y-46122600D01*
X86528200Y-55151600D02*
X86528200Y-51888600D01*
X86528200Y-49406600D02*
X86528200Y-46143600D01*
X86488200Y-55130600D02*
X86488200Y-51888600D01*
X86488200Y-49406600D02*
X86488200Y-46164600D01*
X86448200Y-55109600D02*
X86448200Y-51888600D01*
X86448200Y-49406600D02*
X86448200Y-46185600D01*
X86408200Y-55087600D02*
X86408200Y-51888600D01*
X86408200Y-49406600D02*
X86408200Y-46207600D01*
X86368200Y-55064600D02*
X86368200Y-51888600D01*
X86368200Y-49406600D02*
X86368200Y-46230600D01*
X86328200Y-55042600D02*
X86328200Y-51888600D01*
X86328200Y-49406600D02*
X86328200Y-46252600D01*
X86288200Y-55018600D02*
X86288200Y-51888600D01*
X86288200Y-49406600D02*
X86288200Y-46276600D01*
X86248200Y-54994600D02*
X86248200Y-51888600D01*
X86248200Y-49406600D02*
X86248200Y-46300600D01*
X86208200Y-54970600D02*
X86208200Y-51888600D01*
X86208200Y-49406600D02*
X86208200Y-46324600D01*
X86168200Y-54945600D02*
X86168200Y-51888600D01*
X86168200Y-49406600D02*
X86168200Y-46349600D01*
X86128200Y-54920600D02*
X86128200Y-51888600D01*
X86128200Y-49406600D02*
X86128200Y-46374600D01*
X86088200Y-54894600D02*
X86088200Y-51888600D01*
X86088200Y-49406600D02*
X86088200Y-46400600D01*
X86048200Y-54868600D02*
X86048200Y-51888600D01*
X86048200Y-49406600D02*
X86048200Y-46426600D01*
X86008200Y-54841600D02*
X86008200Y-51888600D01*
X86008200Y-49406600D02*
X86008200Y-46453600D01*
X85968200Y-54813600D02*
X85968200Y-51888600D01*
X85968200Y-49406600D02*
X85968200Y-46481600D01*
X85928200Y-54785600D02*
X85928200Y-51888600D01*
X85928200Y-49406600D02*
X85928200Y-46509600D01*
X85888200Y-54757600D02*
X85888200Y-51888600D01*
X85888200Y-49406600D02*
X85888200Y-46537600D01*
X85848200Y-54727600D02*
X85848200Y-51888600D01*
X85848200Y-49406600D02*
X85848200Y-46567600D01*
X85808200Y-54697600D02*
X85808200Y-51888600D01*
X85808200Y-49406600D02*
X85808200Y-46597600D01*
X85768200Y-54667600D02*
X85768200Y-51888600D01*
X85768200Y-49406600D02*
X85768200Y-46627600D01*
X85728200Y-54636600D02*
X85728200Y-51888600D01*
X85728200Y-49406600D02*
X85728200Y-46658600D01*
X85688200Y-54604600D02*
X85688200Y-51888600D01*
X85688200Y-49406600D02*
X85688200Y-46690600D01*
X85648200Y-54572600D02*
X85648200Y-51888600D01*
X85648200Y-49406600D02*
X85648200Y-46722600D01*
X85608200Y-54539600D02*
X85608200Y-51888600D01*
X85608200Y-49406600D02*
X85608200Y-46755600D01*
X85568200Y-54505600D02*
X85568200Y-51888600D01*
X85568200Y-49406600D02*
X85568200Y-46789600D01*
X85528200Y-54471600D02*
X85528200Y-51888600D01*
X85528200Y-49406600D02*
X85528200Y-46823600D01*
X85488200Y-54436600D02*
X85488200Y-51888600D01*
X85488200Y-49406600D02*
X85488200Y-46858600D01*
X85448200Y-54400600D02*
X85448200Y-51888600D01*
X85448200Y-49406600D02*
X85448200Y-46894600D01*
X85408200Y-54363600D02*
X85408200Y-51888600D01*
X85408200Y-49406600D02*
X85408200Y-46931600D01*
X85368200Y-54326600D02*
X85368200Y-51888600D01*
X85368200Y-49406600D02*
X85368200Y-46968600D01*
X85328200Y-54287600D02*
X85328200Y-51888600D01*
X85328200Y-49406600D02*
X85328200Y-47007600D01*
X85288200Y-54248600D02*
X85288200Y-51888600D01*
X85288200Y-49406600D02*
X85288200Y-47046600D01*
X85248200Y-54208600D02*
X85248200Y-51888600D01*
X85248200Y-49406600D02*
X85248200Y-47086600D01*
X85208200Y-54167600D02*
X85208200Y-51888600D01*
X85208200Y-49406600D02*
X85208200Y-47127600D01*
X85168200Y-54125600D02*
X85168200Y-51888600D01*
X85168200Y-49406600D02*
X85168200Y-47169600D01*
X85128200Y-54083600D02*
X85128200Y-47211600D01*
X85088200Y-54039600D02*
X85088200Y-47255600D01*
X85048200Y-53994600D02*
X85048200Y-47300600D01*
X85008200Y-53948600D02*
X85008200Y-47346600D01*
X84968200Y-53901600D02*
X84968200Y-47393600D01*
X84928200Y-53853600D02*
X84928200Y-47441600D01*
X84888200Y-53803600D02*
X84888200Y-47491600D01*
X84848200Y-53753600D02*
X84848200Y-47541600D01*
X84808200Y-53701600D02*
X84808200Y-47593600D01*
X84768200Y-53647600D02*
X84768200Y-47647600D01*
X84728200Y-53592600D02*
X84728200Y-47702600D01*
X84688200Y-53536600D02*
X84688200Y-47758600D01*
X84648200Y-53477600D02*
X84648200Y-47817600D01*
X84608200Y-53417600D02*
X84608200Y-47877600D01*
X84568200Y-53356600D02*
X84568200Y-47938600D01*
X84528200Y-53292600D02*
X84528200Y-48002600D01*
X84488200Y-53226600D02*
X84488200Y-48068600D01*
X84448200Y-53157600D02*
X84448200Y-48137600D01*
X84408200Y-53086600D02*
X84408200Y-48208600D01*
X84368200Y-53012600D02*
X84368200Y-48282600D01*
X84328200Y-52936600D02*
X84328200Y-48358600D01*
X84288200Y-52856600D02*
X84288200Y-48438600D01*
X84248200Y-52772600D02*
X84248200Y-48522600D01*
X84208200Y-52684600D02*
X84208200Y-48610600D01*
X84168200Y-52591600D02*
X84168200Y-48703600D01*
X84128200Y-52493600D02*
X84128200Y-48801600D01*
X84088200Y-52389600D02*
X84088200Y-48905600D01*
X84048200Y-52277600D02*
X84048200Y-49017600D01*
X84008200Y-52157600D02*
X84008200Y-49137600D01*
X83968200Y-52025600D02*
X83968200Y-49269600D01*
X83928200Y-51877600D02*
X83928200Y-49417600D01*
X83888200Y-51709600D02*
X83888200Y-49585600D01*
X83848200Y-51509600D02*
X83848200Y-49785600D01*
X83808200Y-51246600D02*
X83808200Y-50048600D01*
X94368846Y-53522600D02*
X93368846Y-53522600D01*
X93868846Y-54022600D02*
X93868846Y-53022600D01*
G04 #@! TO.C,C9*
X121068831Y-50374138D02*
X121068831Y-49856982D01*
X119648831Y-50374138D02*
X119648831Y-49856982D01*
G04 #@! TO.C,J7*
X102098800Y-43646400D02*
X104758800Y-43646400D01*
X102098800Y-30886400D02*
X102098800Y-43646400D01*
X104758800Y-30886400D02*
X104758800Y-43646400D01*
X102098800Y-30886400D02*
X104758800Y-30886400D01*
X102098800Y-29616400D02*
X102098800Y-28286400D01*
X102098800Y-28286400D02*
X103428800Y-28286400D01*
G04 #@! TO.C,C1*
X99753922Y-51067900D02*
X100271078Y-51067900D01*
X99753922Y-52487900D02*
X100271078Y-52487900D01*
G04 #@! TO.C,R5*
X154996557Y-28666643D02*
X154996557Y-29183799D01*
X153576557Y-28666643D02*
X153576557Y-29183799D01*
G04 #@! TO.C,R4*
X115365600Y-40025822D02*
X115365600Y-40542978D01*
X113945600Y-40025822D02*
X113945600Y-40542978D01*
G04 #@! TO.C,C8*
X121998331Y-50374138D02*
X121998331Y-49856982D01*
X123418331Y-50374138D02*
X123418331Y-49856982D01*
G04 #@! TO.C,AE1*
X133391057Y-26324721D02*
X133391057Y-25684721D01*
X133391057Y-23524721D02*
X133391057Y-24164721D01*
X133391057Y-25684721D02*
X134021057Y-25684721D01*
X130671057Y-26274721D02*
X130671057Y-23574721D01*
G04 #@! TO.C,C7*
X123360419Y-24659700D02*
X122843263Y-24659700D01*
X123360419Y-26079700D02*
X122843263Y-26079700D01*
G04 #@! TO.C,C5*
X96295392Y-23546723D02*
X96295392Y-22342595D01*
X94475392Y-23546723D02*
X94475392Y-22342595D01*
G04 #@! TO.C,C11*
X113945600Y-43886622D02*
X113945600Y-44403778D01*
X115365600Y-43886622D02*
X115365600Y-44403778D01*
G04 #@! TO.C,J1*
X99374000Y-35601600D02*
X96714000Y-35601600D01*
X99374000Y-40741600D02*
X99374000Y-35601600D01*
X96714000Y-40741600D02*
X96714000Y-35601600D01*
X99374000Y-40741600D02*
X96714000Y-40741600D01*
X99374000Y-42011600D02*
X99374000Y-43341600D01*
X99374000Y-43341600D02*
X98044000Y-43341600D01*
G04 #@! TO.C,C10*
X123862831Y-35959638D02*
X123862831Y-35442482D01*
X122442831Y-35959638D02*
X122442831Y-35442482D01*
D13*
G04 #@! TO.C,U3*
X135943057Y-40029721D02*
X135943057Y-39859721D01*
X138063057Y-40029721D02*
X135943057Y-40029721D01*
X152183057Y-23789721D02*
X152183057Y-23959721D01*
X152183057Y-23789721D02*
X150063057Y-23789721D01*
X135943057Y-23789721D02*
X135943057Y-23959721D01*
X138063057Y-23789721D02*
X135943057Y-23789721D01*
X152183057Y-40029721D02*
X144063057Y-40029721D01*
D12*
G04 #@! TO.C,C6*
X138798559Y-46763393D02*
X138281403Y-46763393D01*
X138798559Y-45343393D02*
X138281403Y-45343393D01*
G04 #@! TO.C,D1*
X75297000Y-25704500D02*
X75297000Y-25904500D01*
X75297000Y-25904500D02*
X81097000Y-25904500D01*
X75297000Y-20904500D02*
X75297000Y-20704500D01*
X75297000Y-20704500D02*
X79897000Y-20704500D01*
X79897000Y-20704500D02*
X79897000Y-20904500D01*
X75297000Y-24804500D02*
X75297000Y-21804500D01*
X79897000Y-21804500D02*
X79897000Y-24804500D01*
D11*
G04 #@! TO.C,RV1*
X48224000Y-55148800D02*
X48224000Y-51248800D01*
X36224000Y-55148800D02*
X36224000Y-51248800D01*
X48224000Y-55148800D02*
X36224000Y-55148800D01*
X48224000Y-51248800D02*
X36224000Y-51248800D01*
D12*
G04 #@! TO.C,F1*
X39366000Y-61029600D02*
X46486000Y-61029600D01*
X39366000Y-57029600D02*
X46486000Y-57029600D01*
G04 #@! TO.C,U1*
D11*
X170625380Y-41105904D02*
X171434904Y-41105904D01*
X171530142Y-41058285D01*
X171577761Y-41010666D01*
X171625380Y-40915428D01*
X171625380Y-40724952D01*
X171577761Y-40629714D01*
X171530142Y-40582095D01*
X171434904Y-40534476D01*
X170625380Y-40534476D01*
X171625380Y-39534476D02*
X171625380Y-40105904D01*
X171625380Y-39820190D02*
X170625380Y-39820190D01*
X170768238Y-39915428D01*
X170863476Y-40010666D01*
X170911095Y-40105904D01*
X169287761Y-44949238D02*
X169335380Y-44806380D01*
X169335380Y-44568285D01*
X169287761Y-44473047D01*
X169240142Y-44425428D01*
X169144904Y-44377809D01*
X169049666Y-44377809D01*
X168954428Y-44425428D01*
X168906809Y-44473047D01*
X168859190Y-44568285D01*
X168811571Y-44758761D01*
X168763952Y-44854000D01*
X168716333Y-44901619D01*
X168621095Y-44949238D01*
X168525857Y-44949238D01*
X168430619Y-44901619D01*
X168383000Y-44854000D01*
X168335380Y-44758761D01*
X168335380Y-44520666D01*
X168383000Y-44377809D01*
X169335380Y-43949238D02*
X168335380Y-43949238D01*
X168335380Y-43568285D01*
X168383000Y-43473047D01*
X168430619Y-43425428D01*
X168525857Y-43377809D01*
X168668714Y-43377809D01*
X168763952Y-43425428D01*
X168811571Y-43473047D01*
X168859190Y-43568285D01*
X168859190Y-43949238D01*
X168811571Y-42615904D02*
X168811571Y-42949238D01*
X169335380Y-42949238D02*
X168335380Y-42949238D01*
X168335380Y-42473047D01*
X168430619Y-42139714D02*
X168383000Y-42092095D01*
X168335380Y-41996857D01*
X168335380Y-41758761D01*
X168383000Y-41663523D01*
X168430619Y-41615904D01*
X168525857Y-41568285D01*
X168621095Y-41568285D01*
X168763952Y-41615904D01*
X169335380Y-42187333D01*
X169335380Y-41568285D01*
X168668714Y-40711142D02*
X169335380Y-40711142D01*
X168287761Y-40949238D02*
X169002047Y-41187333D01*
X169002047Y-40568285D01*
X168335380Y-39996857D02*
X168335380Y-39901619D01*
X168383000Y-39806380D01*
X168430619Y-39758761D01*
X168525857Y-39711142D01*
X168716333Y-39663523D01*
X168954428Y-39663523D01*
X169144904Y-39711142D01*
X169240142Y-39758761D01*
X169287761Y-39806380D01*
X169335380Y-39901619D01*
X169335380Y-39996857D01*
X169287761Y-40092095D01*
X169240142Y-40139714D01*
X169144904Y-40187333D01*
X168954428Y-40234952D01*
X168716333Y-40234952D01*
X168525857Y-40187333D01*
X168430619Y-40139714D01*
X168383000Y-40092095D01*
X168335380Y-39996857D01*
X169335380Y-39234952D02*
X168335380Y-39234952D01*
X168335380Y-38996857D01*
X168383000Y-38854000D01*
X168478238Y-38758761D01*
X168573476Y-38711142D01*
X168763952Y-38663523D01*
X168906809Y-38663523D01*
X169097285Y-38711142D01*
X169192523Y-38758761D01*
X169287761Y-38854000D01*
X169335380Y-38996857D01*
X169335380Y-39234952D01*
X168430619Y-38282571D02*
X168383000Y-38234952D01*
X168335380Y-38139714D01*
X168335380Y-37901619D01*
X168383000Y-37806380D01*
X168430619Y-37758761D01*
X168525857Y-37711142D01*
X168621095Y-37711142D01*
X168763952Y-37758761D01*
X169335380Y-38330190D01*
X169335380Y-37711142D01*
X168335380Y-36806380D02*
X168335380Y-37282571D01*
X168811571Y-37330190D01*
X168763952Y-37282571D01*
X168716333Y-37187333D01*
X168716333Y-36949238D01*
X168763952Y-36854000D01*
X168811571Y-36806380D01*
X168906809Y-36758761D01*
X169144904Y-36758761D01*
X169240142Y-36806380D01*
X169287761Y-36854000D01*
X169335380Y-36949238D01*
X169335380Y-37187333D01*
X169287761Y-37282571D01*
X169240142Y-37330190D01*
G04 #@! TO.C,TR1*
X57716895Y-24750780D02*
X58288323Y-24750780D01*
X58002609Y-25750780D02*
X58002609Y-24750780D01*
X59193085Y-25750780D02*
X58859752Y-25274590D01*
X58621657Y-25750780D02*
X58621657Y-24750780D01*
X59002609Y-24750780D01*
X59097847Y-24798400D01*
X59145466Y-24846019D01*
X59193085Y-24941257D01*
X59193085Y-25084114D01*
X59145466Y-25179352D01*
X59097847Y-25226971D01*
X59002609Y-25274590D01*
X58621657Y-25274590D01*
X60145466Y-25750780D02*
X59574038Y-25750780D01*
X59859752Y-25750780D02*
X59859752Y-24750780D01*
X59764514Y-24893638D01*
X59669276Y-24988876D01*
X59574038Y-25036495D01*
X55626023Y-28688880D02*
X55054595Y-28688880D01*
X55340309Y-28688880D02*
X55340309Y-27688880D01*
X55245071Y-27831738D01*
X55149833Y-27926976D01*
X55054595Y-27974595D01*
X56245071Y-27688880D02*
X56340309Y-27688880D01*
X56435547Y-27736500D01*
X56483166Y-27784119D01*
X56530785Y-27879357D01*
X56578404Y-28069833D01*
X56578404Y-28307928D01*
X56530785Y-28498404D01*
X56483166Y-28593642D01*
X56435547Y-28641261D01*
X56340309Y-28688880D01*
X56245071Y-28688880D01*
X56149833Y-28641261D01*
X56102214Y-28593642D01*
X56054595Y-28498404D01*
X56006976Y-28307928D01*
X56006976Y-28069833D01*
X56054595Y-27879357D01*
X56102214Y-27784119D01*
X56149833Y-27736500D01*
X56245071Y-27688880D01*
X60626023Y-28688880D02*
X60816500Y-28688880D01*
X60911738Y-28641261D01*
X60959357Y-28593642D01*
X61054595Y-28450785D01*
X61102214Y-28260309D01*
X61102214Y-27879357D01*
X61054595Y-27784119D01*
X61006976Y-27736500D01*
X60911738Y-27688880D01*
X60721261Y-27688880D01*
X60626023Y-27736500D01*
X60578404Y-27784119D01*
X60530785Y-27879357D01*
X60530785Y-28117452D01*
X60578404Y-28212690D01*
X60626023Y-28260309D01*
X60721261Y-28307928D01*
X60911738Y-28307928D01*
X61006976Y-28260309D01*
X61054595Y-28212690D01*
X61102214Y-28117452D01*
X65721261Y-28117452D02*
X65626023Y-28069833D01*
X65578404Y-28022214D01*
X65530785Y-27926976D01*
X65530785Y-27879357D01*
X65578404Y-27784119D01*
X65626023Y-27736500D01*
X65721261Y-27688880D01*
X65911738Y-27688880D01*
X66006976Y-27736500D01*
X66054595Y-27784119D01*
X66102214Y-27879357D01*
X66102214Y-27926976D01*
X66054595Y-28022214D01*
X66006976Y-28069833D01*
X65911738Y-28117452D01*
X65721261Y-28117452D01*
X65626023Y-28165071D01*
X65578404Y-28212690D01*
X65530785Y-28307928D01*
X65530785Y-28498404D01*
X65578404Y-28593642D01*
X65626023Y-28641261D01*
X65721261Y-28688880D01*
X65911738Y-28688880D01*
X66006976Y-28641261D01*
X66054595Y-28593642D01*
X66102214Y-28498404D01*
X66102214Y-28307928D01*
X66054595Y-28212690D01*
X66006976Y-28165071D01*
X65911738Y-28117452D01*
X70483166Y-27688880D02*
X71149833Y-27688880D01*
X70721261Y-28688880D01*
X76006976Y-27688880D02*
X75816500Y-27688880D01*
X75721261Y-27736500D01*
X75673642Y-27784119D01*
X75578404Y-27926976D01*
X75530785Y-28117452D01*
X75530785Y-28498404D01*
X75578404Y-28593642D01*
X75626023Y-28641261D01*
X75721261Y-28688880D01*
X75911738Y-28688880D01*
X76006976Y-28641261D01*
X76054595Y-28593642D01*
X76102214Y-28498404D01*
X76102214Y-28260309D01*
X76054595Y-28165071D01*
X76006976Y-28117452D01*
X75911738Y-28069833D01*
X75721261Y-28069833D01*
X75626023Y-28117452D01*
X75578404Y-28165071D01*
X75530785Y-28260309D01*
X76054595Y-53188880D02*
X75578404Y-53188880D01*
X75530785Y-53665071D01*
X75578404Y-53617452D01*
X75673642Y-53569833D01*
X75911738Y-53569833D01*
X76006976Y-53617452D01*
X76054595Y-53665071D01*
X76102214Y-53760309D01*
X76102214Y-53998404D01*
X76054595Y-54093642D01*
X76006976Y-54141261D01*
X75911738Y-54188880D01*
X75673642Y-54188880D01*
X75578404Y-54141261D01*
X75530785Y-54093642D01*
X71006976Y-53522214D02*
X71006976Y-54188880D01*
X70768880Y-53141261D02*
X70530785Y-53855547D01*
X71149833Y-53855547D01*
X65483166Y-53188880D02*
X66102214Y-53188880D01*
X65768880Y-53569833D01*
X65911738Y-53569833D01*
X66006976Y-53617452D01*
X66054595Y-53665071D01*
X66102214Y-53760309D01*
X66102214Y-53998404D01*
X66054595Y-54093642D01*
X66006976Y-54141261D01*
X65911738Y-54188880D01*
X65626023Y-54188880D01*
X65530785Y-54141261D01*
X65483166Y-54093642D01*
X60530785Y-53284119D02*
X60578404Y-53236500D01*
X60673642Y-53188880D01*
X60911738Y-53188880D01*
X61006976Y-53236500D01*
X61054595Y-53284119D01*
X61102214Y-53379357D01*
X61102214Y-53474595D01*
X61054595Y-53617452D01*
X60483166Y-54188880D01*
X61102214Y-54188880D01*
X56102214Y-54188880D02*
X55530785Y-54188880D01*
X55816500Y-54188880D02*
X55816500Y-53188880D01*
X55721261Y-53331738D01*
X55626023Y-53426976D01*
X55530785Y-53474595D01*
G04 #@! TO.C,C13*
X124883942Y-33885142D02*
X124836323Y-33932761D01*
X124693466Y-33980380D01*
X124598228Y-33980380D01*
X124455371Y-33932761D01*
X124360133Y-33837523D01*
X124312514Y-33742285D01*
X124264895Y-33551809D01*
X124264895Y-33408952D01*
X124312514Y-33218476D01*
X124360133Y-33123238D01*
X124455371Y-33028000D01*
X124598228Y-32980380D01*
X124693466Y-32980380D01*
X124836323Y-33028000D01*
X124883942Y-33075619D01*
X125836323Y-33980380D02*
X125264895Y-33980380D01*
X125550609Y-33980380D02*
X125550609Y-32980380D01*
X125455371Y-33123238D01*
X125360133Y-33218476D01*
X125264895Y-33266095D01*
X126169657Y-32980380D02*
X126788704Y-32980380D01*
X126455371Y-33361333D01*
X126598228Y-33361333D01*
X126693466Y-33408952D01*
X126741085Y-33456571D01*
X126788704Y-33551809D01*
X126788704Y-33789904D01*
X126741085Y-33885142D01*
X126693466Y-33932761D01*
X126598228Y-33980380D01*
X126312514Y-33980380D01*
X126217276Y-33932761D01*
X126169657Y-33885142D01*
G04 #@! TO.C,J2*
X30270166Y-39885880D02*
X30270166Y-40600166D01*
X30222547Y-40743023D01*
X30127309Y-40838261D01*
X29984452Y-40885880D01*
X29889214Y-40885880D01*
X30698738Y-39981119D02*
X30746357Y-39933500D01*
X30841595Y-39885880D01*
X31079690Y-39885880D01*
X31174928Y-39933500D01*
X31222547Y-39981119D01*
X31270166Y-40076357D01*
X31270166Y-40171595D01*
X31222547Y-40314452D01*
X30651119Y-40885880D01*
X31270166Y-40885880D01*
G04 #@! TO.C,C2*
X88671733Y-46281942D02*
X88624114Y-46329561D01*
X88481257Y-46377180D01*
X88386019Y-46377180D01*
X88243161Y-46329561D01*
X88147923Y-46234323D01*
X88100304Y-46139085D01*
X88052685Y-45948609D01*
X88052685Y-45805752D01*
X88100304Y-45615276D01*
X88147923Y-45520038D01*
X88243161Y-45424800D01*
X88386019Y-45377180D01*
X88481257Y-45377180D01*
X88624114Y-45424800D01*
X88671733Y-45472419D01*
X89052685Y-45472419D02*
X89100304Y-45424800D01*
X89195542Y-45377180D01*
X89433638Y-45377180D01*
X89528876Y-45424800D01*
X89576495Y-45472419D01*
X89624114Y-45567657D01*
X89624114Y-45662895D01*
X89576495Y-45805752D01*
X89005066Y-46377180D01*
X89624114Y-46377180D01*
G04 #@! TO.C,C4*
X106876534Y-23047825D02*
X106924153Y-23095444D01*
X106971772Y-23238301D01*
X106971772Y-23333539D01*
X106924153Y-23476397D01*
X106828915Y-23571635D01*
X106733677Y-23619254D01*
X106543201Y-23666873D01*
X106400344Y-23666873D01*
X106209868Y-23619254D01*
X106114630Y-23571635D01*
X106019392Y-23476397D01*
X105971772Y-23333539D01*
X105971772Y-23238301D01*
X106019392Y-23095444D01*
X106067011Y-23047825D01*
X106305106Y-22190682D02*
X106971772Y-22190682D01*
X105924153Y-22428778D02*
X106638439Y-22666873D01*
X106638439Y-22047825D01*
G04 #@! TO.C,R7*
X100417333Y-45257980D02*
X100084000Y-44781790D01*
X99845904Y-45257980D02*
X99845904Y-44257980D01*
X100226857Y-44257980D01*
X100322095Y-44305600D01*
X100369714Y-44353219D01*
X100417333Y-44448457D01*
X100417333Y-44591314D01*
X100369714Y-44686552D01*
X100322095Y-44734171D01*
X100226857Y-44781790D01*
X99845904Y-44781790D01*
X100750666Y-44257980D02*
X101417333Y-44257980D01*
X100988761Y-45257980D01*
G04 #@! TO.C,C3*
X133183333Y-34799542D02*
X133135714Y-34847161D01*
X132992857Y-34894780D01*
X132897619Y-34894780D01*
X132754761Y-34847161D01*
X132659523Y-34751923D01*
X132611904Y-34656685D01*
X132564285Y-34466209D01*
X132564285Y-34323352D01*
X132611904Y-34132876D01*
X132659523Y-34037638D01*
X132754761Y-33942400D01*
X132897619Y-33894780D01*
X132992857Y-33894780D01*
X133135714Y-33942400D01*
X133183333Y-33990019D01*
X133516666Y-33894780D02*
X134135714Y-33894780D01*
X133802380Y-34275733D01*
X133945238Y-34275733D01*
X134040476Y-34323352D01*
X134088095Y-34370971D01*
X134135714Y-34466209D01*
X134135714Y-34704304D01*
X134088095Y-34799542D01*
X134040476Y-34847161D01*
X133945238Y-34894780D01*
X133659523Y-34894780D01*
X133564285Y-34847161D01*
X133516666Y-34799542D01*
G04 #@! TO.C,HS1*
X94519904Y-29662380D02*
X94519904Y-28662380D01*
X94519904Y-29138571D02*
X95091333Y-29138571D01*
X95091333Y-29662380D02*
X95091333Y-28662380D01*
X95519904Y-29614761D02*
X95662761Y-29662380D01*
X95900857Y-29662380D01*
X95996095Y-29614761D01*
X96043714Y-29567142D01*
X96091333Y-29471904D01*
X96091333Y-29376666D01*
X96043714Y-29281428D01*
X95996095Y-29233809D01*
X95900857Y-29186190D01*
X95710380Y-29138571D01*
X95615142Y-29090952D01*
X95567523Y-29043333D01*
X95519904Y-28948095D01*
X95519904Y-28852857D01*
X95567523Y-28757619D01*
X95615142Y-28710000D01*
X95710380Y-28662380D01*
X95948476Y-28662380D01*
X96091333Y-28710000D01*
X97043714Y-29662380D02*
X96472285Y-29662380D01*
X96758000Y-29662380D02*
X96758000Y-28662380D01*
X96662761Y-28805238D01*
X96567523Y-28900476D01*
X96472285Y-28948095D01*
G04 #@! TO.C,U6*
X122403436Y-29838580D02*
X122403436Y-30648104D01*
X122451055Y-30743342D01*
X122498674Y-30790961D01*
X122593912Y-30838580D01*
X122784388Y-30838580D01*
X122879626Y-30790961D01*
X122927245Y-30743342D01*
X122974864Y-30648104D01*
X122974864Y-29838580D01*
X123879626Y-29838580D02*
X123689150Y-29838580D01*
X123593912Y-29886200D01*
X123546293Y-29933819D01*
X123451055Y-30076676D01*
X123403436Y-30267152D01*
X123403436Y-30648104D01*
X123451055Y-30743342D01*
X123498674Y-30790961D01*
X123593912Y-30838580D01*
X123784388Y-30838580D01*
X123879626Y-30790961D01*
X123927245Y-30743342D01*
X123974864Y-30648104D01*
X123974864Y-30410009D01*
X123927245Y-30314771D01*
X123879626Y-30267152D01*
X123784388Y-30219533D01*
X123593912Y-30219533D01*
X123498674Y-30267152D01*
X123451055Y-30314771D01*
X123403436Y-30410009D01*
G04 #@! TO.C,R3*
X134903674Y-44928433D02*
X134570341Y-44452243D01*
X134332245Y-44928433D02*
X134332245Y-43928433D01*
X134713198Y-43928433D01*
X134808436Y-43976053D01*
X134856055Y-44023672D01*
X134903674Y-44118910D01*
X134903674Y-44261767D01*
X134856055Y-44357005D01*
X134808436Y-44404624D01*
X134713198Y-44452243D01*
X134332245Y-44452243D01*
X135237007Y-43928433D02*
X135856055Y-43928433D01*
X135522721Y-44309386D01*
X135665579Y-44309386D01*
X135760817Y-44357005D01*
X135808436Y-44404624D01*
X135856055Y-44499862D01*
X135856055Y-44737957D01*
X135808436Y-44833195D01*
X135760817Y-44880814D01*
X135665579Y-44928433D01*
X135379864Y-44928433D01*
X135284626Y-44880814D01*
X135237007Y-44833195D01*
G04 #@! TO.C,U7*
X121819426Y-42265440D02*
X121819426Y-43074964D01*
X121867045Y-43170202D01*
X121914664Y-43217821D01*
X122009902Y-43265440D01*
X122200378Y-43265440D01*
X122295616Y-43217821D01*
X122343235Y-43170202D01*
X122390854Y-43074964D01*
X122390854Y-42265440D01*
X122771807Y-42265440D02*
X123438473Y-42265440D01*
X123009902Y-43265440D01*
G04 #@! TO.C,U5*
X136721436Y-50913433D02*
X136721436Y-51722957D01*
X136769055Y-51818195D01*
X136816674Y-51865814D01*
X136911912Y-51913433D01*
X137102388Y-51913433D01*
X137197626Y-51865814D01*
X137245245Y-51818195D01*
X137292864Y-51722957D01*
X137292864Y-50913433D01*
X138245245Y-50913433D02*
X137769055Y-50913433D01*
X137721436Y-51389624D01*
X137769055Y-51342005D01*
X137864293Y-51294386D01*
X138102388Y-51294386D01*
X138197626Y-51342005D01*
X138245245Y-51389624D01*
X138292864Y-51484862D01*
X138292864Y-51722957D01*
X138245245Y-51818195D01*
X138197626Y-51865814D01*
X138102388Y-51913433D01*
X137864293Y-51913433D01*
X137769055Y-51865814D01*
X137721436Y-51818195D01*
G04 #@! TO.C,R6*
X154062133Y-23413980D02*
X153728800Y-22937790D01*
X153490704Y-23413980D02*
X153490704Y-22413980D01*
X153871657Y-22413980D01*
X153966895Y-22461600D01*
X154014514Y-22509219D01*
X154062133Y-22604457D01*
X154062133Y-22747314D01*
X154014514Y-22842552D01*
X153966895Y-22890171D01*
X153871657Y-22937790D01*
X153490704Y-22937790D01*
X154919276Y-22413980D02*
X154728800Y-22413980D01*
X154633561Y-22461600D01*
X154585942Y-22509219D01*
X154490704Y-22652076D01*
X154443085Y-22842552D01*
X154443085Y-23223504D01*
X154490704Y-23318742D01*
X154538323Y-23366361D01*
X154633561Y-23413980D01*
X154824038Y-23413980D01*
X154919276Y-23366361D01*
X154966895Y-23318742D01*
X155014514Y-23223504D01*
X155014514Y-22985409D01*
X154966895Y-22890171D01*
X154919276Y-22842552D01*
X154824038Y-22794933D01*
X154633561Y-22794933D01*
X154538323Y-22842552D01*
X154490704Y-22890171D01*
X154443085Y-22985409D01*
G04 #@! TO.C,U4*
X96977295Y-20686780D02*
X96977295Y-21496304D01*
X97024914Y-21591542D01*
X97072533Y-21639161D01*
X97167771Y-21686780D01*
X97358247Y-21686780D01*
X97453485Y-21639161D01*
X97501104Y-21591542D01*
X97548723Y-21496304D01*
X97548723Y-20686780D01*
X98453485Y-21020114D02*
X98453485Y-21686780D01*
X98215390Y-20639161D02*
X97977295Y-21353447D01*
X98596342Y-21353447D01*
G04 #@! TO.C,U2*
X100126895Y-49337980D02*
X100126895Y-50147504D01*
X100174514Y-50242742D01*
X100222133Y-50290361D01*
X100317371Y-50337980D01*
X100507847Y-50337980D01*
X100603085Y-50290361D01*
X100650704Y-50242742D01*
X100698323Y-50147504D01*
X100698323Y-49337980D01*
X101126895Y-49433219D02*
X101174514Y-49385600D01*
X101269752Y-49337980D01*
X101507847Y-49337980D01*
X101603085Y-49385600D01*
X101650704Y-49433219D01*
X101698323Y-49528457D01*
X101698323Y-49623695D01*
X101650704Y-49766552D01*
X101079276Y-50337980D01*
X101698323Y-50337980D01*
G04 #@! TO.C,Y1*
X127539809Y-47270990D02*
X127539809Y-47747180D01*
X127206476Y-46747180D02*
X127539809Y-47270990D01*
X127873142Y-46747180D01*
X128730285Y-47747180D02*
X128158857Y-47747180D01*
X128444571Y-47747180D02*
X128444571Y-46747180D01*
X128349333Y-46890038D01*
X128254095Y-46985276D01*
X128158857Y-47032895D01*
G04 #@! TO.C,J8*
X153082666Y-49337980D02*
X153082666Y-50052266D01*
X153035047Y-50195123D01*
X152939809Y-50290361D01*
X152796952Y-50337980D01*
X152701714Y-50337980D01*
X153701714Y-49766552D02*
X153606476Y-49718933D01*
X153558857Y-49671314D01*
X153511238Y-49576076D01*
X153511238Y-49528457D01*
X153558857Y-49433219D01*
X153606476Y-49385600D01*
X153701714Y-49337980D01*
X153892190Y-49337980D01*
X153987428Y-49385600D01*
X154035047Y-49433219D01*
X154082666Y-49528457D01*
X154082666Y-49576076D01*
X154035047Y-49671314D01*
X153987428Y-49718933D01*
X153892190Y-49766552D01*
X153701714Y-49766552D01*
X153606476Y-49814171D01*
X153558857Y-49861790D01*
X153511238Y-49957028D01*
X153511238Y-50147504D01*
X153558857Y-50242742D01*
X153606476Y-50290361D01*
X153701714Y-50337980D01*
X153892190Y-50337980D01*
X153987428Y-50290361D01*
X154035047Y-50242742D01*
X154082666Y-50147504D01*
X154082666Y-49957028D01*
X154035047Y-49861790D01*
X153987428Y-49814171D01*
X153892190Y-49766552D01*
G04 #@! TO.C,C12*
X88246342Y-57254742D02*
X88198723Y-57302361D01*
X88055866Y-57349980D01*
X87960628Y-57349980D01*
X87817771Y-57302361D01*
X87722533Y-57207123D01*
X87674914Y-57111885D01*
X87627295Y-56921409D01*
X87627295Y-56778552D01*
X87674914Y-56588076D01*
X87722533Y-56492838D01*
X87817771Y-56397600D01*
X87960628Y-56349980D01*
X88055866Y-56349980D01*
X88198723Y-56397600D01*
X88246342Y-56445219D01*
X89198723Y-57349980D02*
X88627295Y-57349980D01*
X88913009Y-57349980D02*
X88913009Y-56349980D01*
X88817771Y-56492838D01*
X88722533Y-56588076D01*
X88627295Y-56635695D01*
X89579676Y-56445219D02*
X89627295Y-56397600D01*
X89722533Y-56349980D01*
X89960628Y-56349980D01*
X90055866Y-56397600D01*
X90103485Y-56445219D01*
X90151104Y-56540457D01*
X90151104Y-56635695D01*
X90103485Y-56778552D01*
X89532057Y-57349980D01*
X90151104Y-57349980D01*
G04 #@! TO.C,C9*
X120229333Y-52731942D02*
X120181714Y-52779561D01*
X120038857Y-52827180D01*
X119943619Y-52827180D01*
X119800761Y-52779561D01*
X119705523Y-52684323D01*
X119657904Y-52589085D01*
X119610285Y-52398609D01*
X119610285Y-52255752D01*
X119657904Y-52065276D01*
X119705523Y-51970038D01*
X119800761Y-51874800D01*
X119943619Y-51827180D01*
X120038857Y-51827180D01*
X120181714Y-51874800D01*
X120229333Y-51922419D01*
X120705523Y-52827180D02*
X120896000Y-52827180D01*
X120991238Y-52779561D01*
X121038857Y-52731942D01*
X121134095Y-52589085D01*
X121181714Y-52398609D01*
X121181714Y-52017657D01*
X121134095Y-51922419D01*
X121086476Y-51874800D01*
X120991238Y-51827180D01*
X120800761Y-51827180D01*
X120705523Y-51874800D01*
X120657904Y-51922419D01*
X120610285Y-52017657D01*
X120610285Y-52255752D01*
X120657904Y-52350990D01*
X120705523Y-52398609D01*
X120800761Y-52446228D01*
X120991238Y-52446228D01*
X121086476Y-52398609D01*
X121134095Y-52350990D01*
X121181714Y-52255752D01*
G04 #@! TO.C,J7*
X100657066Y-29119580D02*
X100657066Y-29833866D01*
X100609447Y-29976723D01*
X100514209Y-30071961D01*
X100371352Y-30119580D01*
X100276114Y-30119580D01*
X101038019Y-29119580D02*
X101704685Y-29119580D01*
X101276114Y-30119580D01*
G04 #@! TO.C,C1*
X99909333Y-53798742D02*
X99861714Y-53846361D01*
X99718857Y-53893980D01*
X99623619Y-53893980D01*
X99480761Y-53846361D01*
X99385523Y-53751123D01*
X99337904Y-53655885D01*
X99290285Y-53465409D01*
X99290285Y-53322552D01*
X99337904Y-53132076D01*
X99385523Y-53036838D01*
X99480761Y-52941600D01*
X99623619Y-52893980D01*
X99718857Y-52893980D01*
X99861714Y-52941600D01*
X99909333Y-52989219D01*
X100861714Y-53893980D02*
X100290285Y-53893980D01*
X100576000Y-53893980D02*
X100576000Y-52893980D01*
X100480761Y-53036838D01*
X100385523Y-53132076D01*
X100290285Y-53179695D01*
G04 #@! TO.C,R5*
X154316133Y-31795980D02*
X153982800Y-31319790D01*
X153744704Y-31795980D02*
X153744704Y-30795980D01*
X154125657Y-30795980D01*
X154220895Y-30843600D01*
X154268514Y-30891219D01*
X154316133Y-30986457D01*
X154316133Y-31129314D01*
X154268514Y-31224552D01*
X154220895Y-31272171D01*
X154125657Y-31319790D01*
X153744704Y-31319790D01*
X155220895Y-30795980D02*
X154744704Y-30795980D01*
X154697085Y-31272171D01*
X154744704Y-31224552D01*
X154839942Y-31176933D01*
X155078038Y-31176933D01*
X155173276Y-31224552D01*
X155220895Y-31272171D01*
X155268514Y-31367409D01*
X155268514Y-31605504D01*
X155220895Y-31700742D01*
X155173276Y-31748361D01*
X155078038Y-31795980D01*
X154839942Y-31795980D01*
X154744704Y-31748361D01*
X154697085Y-31700742D01*
G04 #@! TO.C,R4*
X114425433Y-38133280D02*
X114092100Y-37657090D01*
X113854004Y-38133280D02*
X113854004Y-37133280D01*
X114234957Y-37133280D01*
X114330195Y-37180900D01*
X114377814Y-37228519D01*
X114425433Y-37323757D01*
X114425433Y-37466614D01*
X114377814Y-37561852D01*
X114330195Y-37609471D01*
X114234957Y-37657090D01*
X113854004Y-37657090D01*
X115282576Y-37466614D02*
X115282576Y-38133280D01*
X115044480Y-37085661D02*
X114806385Y-37799947D01*
X115425433Y-37799947D01*
G04 #@! TO.C,C8*
X122312133Y-52731942D02*
X122264514Y-52779561D01*
X122121657Y-52827180D01*
X122026419Y-52827180D01*
X121883561Y-52779561D01*
X121788323Y-52684323D01*
X121740704Y-52589085D01*
X121693085Y-52398609D01*
X121693085Y-52255752D01*
X121740704Y-52065276D01*
X121788323Y-51970038D01*
X121883561Y-51874800D01*
X122026419Y-51827180D01*
X122121657Y-51827180D01*
X122264514Y-51874800D01*
X122312133Y-51922419D01*
X122883561Y-52255752D02*
X122788323Y-52208133D01*
X122740704Y-52160514D01*
X122693085Y-52065276D01*
X122693085Y-52017657D01*
X122740704Y-51922419D01*
X122788323Y-51874800D01*
X122883561Y-51827180D01*
X123074038Y-51827180D01*
X123169276Y-51874800D01*
X123216895Y-51922419D01*
X123264514Y-52017657D01*
X123264514Y-52065276D01*
X123216895Y-52160514D01*
X123169276Y-52208133D01*
X123074038Y-52255752D01*
X122883561Y-52255752D01*
X122788323Y-52303371D01*
X122740704Y-52350990D01*
X122693085Y-52446228D01*
X122693085Y-52636704D01*
X122740704Y-52731942D01*
X122788323Y-52779561D01*
X122883561Y-52827180D01*
X123074038Y-52827180D01*
X123169276Y-52779561D01*
X123216895Y-52731942D01*
X123264514Y-52636704D01*
X123264514Y-52446228D01*
X123216895Y-52350990D01*
X123169276Y-52303371D01*
X123074038Y-52255752D01*
G04 #@! TO.C,AE1*
X130864390Y-28291387D02*
X131340580Y-28291387D01*
X130769152Y-28577101D02*
X131102485Y-27577101D01*
X131435818Y-28577101D01*
X131769152Y-28053292D02*
X132102485Y-28053292D01*
X132245342Y-28577101D02*
X131769152Y-28577101D01*
X131769152Y-27577101D01*
X132245342Y-27577101D01*
X133197723Y-28577101D02*
X132626295Y-28577101D01*
X132912009Y-28577101D02*
X132912009Y-27577101D01*
X132816771Y-27719959D01*
X132721533Y-27815197D01*
X132626295Y-27862816D01*
G04 #@! TO.C,C7*
X122935174Y-24139342D02*
X122887555Y-24186961D01*
X122744698Y-24234580D01*
X122649460Y-24234580D01*
X122506602Y-24186961D01*
X122411364Y-24091723D01*
X122363745Y-23996485D01*
X122316126Y-23806009D01*
X122316126Y-23663152D01*
X122363745Y-23472676D01*
X122411364Y-23377438D01*
X122506602Y-23282200D01*
X122649460Y-23234580D01*
X122744698Y-23234580D01*
X122887555Y-23282200D01*
X122935174Y-23329819D01*
X123268507Y-23234580D02*
X123935174Y-23234580D01*
X123506602Y-24234580D01*
G04 #@! TO.C,C5*
X93922534Y-23111325D02*
X93970153Y-23158944D01*
X94017772Y-23301801D01*
X94017772Y-23397039D01*
X93970153Y-23539897D01*
X93874915Y-23635135D01*
X93779677Y-23682754D01*
X93589201Y-23730373D01*
X93446344Y-23730373D01*
X93255868Y-23682754D01*
X93160630Y-23635135D01*
X93065392Y-23539897D01*
X93017772Y-23397039D01*
X93017772Y-23301801D01*
X93065392Y-23158944D01*
X93113011Y-23111325D01*
X93017772Y-22206563D02*
X93017772Y-22682754D01*
X93493963Y-22730373D01*
X93446344Y-22682754D01*
X93398725Y-22587516D01*
X93398725Y-22349420D01*
X93446344Y-22254182D01*
X93493963Y-22206563D01*
X93589201Y-22158944D01*
X93827296Y-22158944D01*
X93922534Y-22206563D01*
X93970153Y-22254182D01*
X94017772Y-22349420D01*
X94017772Y-22587516D01*
X93970153Y-22682754D01*
X93922534Y-22730373D01*
G04 #@! TO.C,C11*
X113809542Y-46991542D02*
X113761923Y-47039161D01*
X113619066Y-47086780D01*
X113523828Y-47086780D01*
X113380971Y-47039161D01*
X113285733Y-46943923D01*
X113238114Y-46848685D01*
X113190495Y-46658209D01*
X113190495Y-46515352D01*
X113238114Y-46324876D01*
X113285733Y-46229638D01*
X113380971Y-46134400D01*
X113523828Y-46086780D01*
X113619066Y-46086780D01*
X113761923Y-46134400D01*
X113809542Y-46182019D01*
X114761923Y-47086780D02*
X114190495Y-47086780D01*
X114476209Y-47086780D02*
X114476209Y-46086780D01*
X114380971Y-46229638D01*
X114285733Y-46324876D01*
X114190495Y-46372495D01*
X115714304Y-47086780D02*
X115142876Y-47086780D01*
X115428590Y-47086780D02*
X115428590Y-46086780D01*
X115333352Y-46229638D01*
X115238114Y-46324876D01*
X115142876Y-46372495D01*
G04 #@! TO.C,J1*
X97863066Y-34047180D02*
X97863066Y-34761466D01*
X97815447Y-34904323D01*
X97720209Y-34999561D01*
X97577352Y-35047180D01*
X97482114Y-35047180D01*
X98863066Y-35047180D02*
X98291638Y-35047180D01*
X98577352Y-35047180D02*
X98577352Y-34047180D01*
X98482114Y-34190038D01*
X98386876Y-34285276D01*
X98291638Y-34332895D01*
G04 #@! TO.C,C10*
X121683542Y-33935942D02*
X121635923Y-33983561D01*
X121493066Y-34031180D01*
X121397828Y-34031180D01*
X121254971Y-33983561D01*
X121159733Y-33888323D01*
X121112114Y-33793085D01*
X121064495Y-33602609D01*
X121064495Y-33459752D01*
X121112114Y-33269276D01*
X121159733Y-33174038D01*
X121254971Y-33078800D01*
X121397828Y-33031180D01*
X121493066Y-33031180D01*
X121635923Y-33078800D01*
X121683542Y-33126419D01*
X122635923Y-34031180D02*
X122064495Y-34031180D01*
X122350209Y-34031180D02*
X122350209Y-33031180D01*
X122254971Y-33174038D01*
X122159733Y-33269276D01*
X122064495Y-33316895D01*
X123254971Y-33031180D02*
X123350209Y-33031180D01*
X123445447Y-33078800D01*
X123493066Y-33126419D01*
X123540685Y-33221657D01*
X123588304Y-33412133D01*
X123588304Y-33650228D01*
X123540685Y-33840704D01*
X123493066Y-33935942D01*
X123445447Y-33983561D01*
X123350209Y-34031180D01*
X123254971Y-34031180D01*
X123159733Y-33983561D01*
X123112114Y-33935942D01*
X123064495Y-33840704D01*
X123016876Y-33650228D01*
X123016876Y-33412133D01*
X123064495Y-33221657D01*
X123112114Y-33126419D01*
X123159733Y-33078800D01*
X123254971Y-33031180D01*
G04 #@! TO.C,U3*
X150301152Y-40862101D02*
X150301152Y-41671625D01*
X150348771Y-41766863D01*
X150396390Y-41814482D01*
X150491628Y-41862101D01*
X150682104Y-41862101D01*
X150777342Y-41814482D01*
X150824961Y-41766863D01*
X150872580Y-41671625D01*
X150872580Y-40862101D01*
X151253533Y-40862101D02*
X151872580Y-40862101D01*
X151539247Y-41243054D01*
X151682104Y-41243054D01*
X151777342Y-41290673D01*
X151824961Y-41338292D01*
X151872580Y-41433530D01*
X151872580Y-41671625D01*
X151824961Y-41766863D01*
X151777342Y-41814482D01*
X151682104Y-41862101D01*
X151396390Y-41862101D01*
X151301152Y-41814482D01*
X151253533Y-41766863D01*
G04 #@! TO.C,C6*
X138364933Y-44857942D02*
X138317314Y-44905561D01*
X138174457Y-44953180D01*
X138079219Y-44953180D01*
X137936361Y-44905561D01*
X137841123Y-44810323D01*
X137793504Y-44715085D01*
X137745885Y-44524609D01*
X137745885Y-44381752D01*
X137793504Y-44191276D01*
X137841123Y-44096038D01*
X137936361Y-44000800D01*
X138079219Y-43953180D01*
X138174457Y-43953180D01*
X138317314Y-44000800D01*
X138364933Y-44048419D01*
X139222076Y-43953180D02*
X139031600Y-43953180D01*
X138936361Y-44000800D01*
X138888742Y-44048419D01*
X138793504Y-44191276D01*
X138745885Y-44381752D01*
X138745885Y-44762704D01*
X138793504Y-44857942D01*
X138841123Y-44905561D01*
X138936361Y-44953180D01*
X139126838Y-44953180D01*
X139222076Y-44905561D01*
X139269695Y-44857942D01*
X139317314Y-44762704D01*
X139317314Y-44524609D01*
X139269695Y-44429371D01*
X139222076Y-44381752D01*
X139126838Y-44334133D01*
X138936361Y-44334133D01*
X138841123Y-44381752D01*
X138793504Y-44429371D01*
X138745885Y-44524609D01*
G04 #@! TO.C,D1*
X73328304Y-23769580D02*
X73328304Y-22769580D01*
X73566400Y-22769580D01*
X73709257Y-22817200D01*
X73804495Y-22912438D01*
X73852114Y-23007676D01*
X73899733Y-23198152D01*
X73899733Y-23341009D01*
X73852114Y-23531485D01*
X73804495Y-23626723D01*
X73709257Y-23721961D01*
X73566400Y-23769580D01*
X73328304Y-23769580D01*
X74852114Y-23769580D02*
X74280685Y-23769580D01*
X74566400Y-23769580D02*
X74566400Y-22769580D01*
X74471161Y-22912438D01*
X74375923Y-23007676D01*
X74280685Y-23055295D01*
G04 #@! TO.C,RV1*
X41695761Y-53589180D02*
X41362428Y-53112990D01*
X41124333Y-53589180D02*
X41124333Y-52589180D01*
X41505285Y-52589180D01*
X41600523Y-52636800D01*
X41648142Y-52684419D01*
X41695761Y-52779657D01*
X41695761Y-52922514D01*
X41648142Y-53017752D01*
X41600523Y-53065371D01*
X41505285Y-53112990D01*
X41124333Y-53112990D01*
X41981476Y-52589180D02*
X42314809Y-53589180D01*
X42648142Y-52589180D01*
X43505285Y-53589180D02*
X42933857Y-53589180D01*
X43219571Y-53589180D02*
X43219571Y-52589180D01*
X43124333Y-52732038D01*
X43029095Y-52827276D01*
X42933857Y-52874895D01*
G04 #@! TO.C,J3*
X29666666Y-58222380D02*
X29666666Y-58936666D01*
X29619047Y-59079523D01*
X29523809Y-59174761D01*
X29380952Y-59222380D01*
X29285714Y-59222380D01*
X30047619Y-58222380D02*
X30666666Y-58222380D01*
X30333333Y-58603333D01*
X30476190Y-58603333D01*
X30571428Y-58650952D01*
X30619047Y-58698571D01*
X30666666Y-58793809D01*
X30666666Y-59031904D01*
X30619047Y-59127142D01*
X30571428Y-59174761D01*
X30476190Y-59222380D01*
X30190476Y-59222380D01*
X30095238Y-59174761D01*
X30047619Y-59127142D01*
G04 #@! TO.C,J4*
X29666666Y-49222380D02*
X29666666Y-49936666D01*
X29619047Y-50079523D01*
X29523809Y-50174761D01*
X29380952Y-50222380D01*
X29285714Y-50222380D01*
X30571428Y-49555714D02*
X30571428Y-50222380D01*
X30333333Y-49174761D02*
X30095238Y-49889047D01*
X30714285Y-49889047D01*
G04 #@! TO.C,J5*
X29666666Y-25222380D02*
X29666666Y-25936666D01*
X29619047Y-26079523D01*
X29523809Y-26174761D01*
X29380952Y-26222380D01*
X29285714Y-26222380D01*
X30619047Y-25222380D02*
X30142857Y-25222380D01*
X30095238Y-25698571D01*
X30142857Y-25650952D01*
X30238095Y-25603333D01*
X30476190Y-25603333D01*
X30571428Y-25650952D01*
X30619047Y-25698571D01*
X30666666Y-25793809D01*
X30666666Y-26031904D01*
X30619047Y-26127142D01*
X30571428Y-26174761D01*
X30476190Y-26222380D01*
X30238095Y-26222380D01*
X30142857Y-26174761D01*
X30095238Y-26127142D01*
G04 #@! TO.C,F1*
X42402166Y-58894671D02*
X42068833Y-58894671D01*
X42068833Y-59418480D02*
X42068833Y-58418480D01*
X42545023Y-58418480D01*
X43449785Y-59418480D02*
X42878357Y-59418480D01*
X43164071Y-59418480D02*
X43164071Y-58418480D01*
X43068833Y-58561338D01*
X42973595Y-58656576D01*
X42878357Y-58704195D01*
G04 #@! TD*
M02*
