M48
INCH,TZ
T1C0.0157
T2C0.0236
T3C0.0315
T4C0.0354
T5C0.0394
T6C0.0433
T7C0.0472
T8C0.0551
T9C0.0984
%
G90
G05
T1
X17780Y-13780
X18035Y-14048
X18200Y-13780
X18660Y-13800
X39780Y-19540
X41453Y-20375
X41546Y-20676
X41940Y-19100
X41980Y-19500
X41991Y-13510
X42045Y-13820
X42635Y-13574
X42860Y-13840
X46000Y-13348
X46000Y-14420
X47620Y-10480
X47860Y-13680
X48080Y-16600
X48280Y-12654
X49200Y-8940
X49724Y-18772
X51951Y-17511
X52199Y-18099
X52340Y-20280
X57520Y-16946
X57720Y-17260
X57720Y-17780
X58481Y-17517
X58787Y-17594
X58860Y-16680
X59160Y-16880
X61300Y-16880
X61314Y-16500
X62166Y-16240
X62260Y-16600
X66620Y-10720
T2
X56460Y-12260
T3
X15147Y-20669
X18100Y-21220
T4
X21975Y-12101
X21975Y-19975
X23944Y-12101
X23944Y-19975
X25912Y-12101
X27881Y-12101
X27881Y-19975
X29849Y-12101
X29849Y-19975
T5
X40720Y-11660
X40720Y-12660
X40720Y-13660
X40720Y-14660
X40720Y-15660
X40720Y-16660
X33991Y-15620
X35960Y-15620
X34011Y-19940
X35980Y-19940
X13775Y-12025
X13775Y-13025
X13775Y-14025
X13775Y-15025
X38600Y-14540
X38600Y-15540
X38600Y-16540
X43307Y-14642
X43307Y-15642
X43307Y-16642
X43307Y-17642
X57240Y-18320
X57240Y-19320
X58240Y-18320
X58240Y-19320
X59240Y-18320
X59240Y-19320
T6
X39103Y-9158
X40103Y-9158
X41103Y-9158
T7
X64450Y-10600
X64450Y-12600
X64450Y-17600
X64450Y-21600
T8
X10811Y-22441
X12811Y-22441
X10811Y-9449
X12811Y-9449
X10811Y-18898
X12811Y-18898
T9
X35103Y-10783
X45103Y-10783
T0
M30
